<svg width="24" height="24" viewBox="0 0 24 24" fill="none" xmlns="http://www.w3.org/2000/svg">
<path d="M17.25 18H22V20H15.25L17.25 18ZM4.75 20L2.625 17.875C2.24167 17.4917 2.04582 17.0167 2.0375 16.45C2.02917 15.8833 2.21667 15.4 2.6 15L13.6 3.6C13.9833 3.2 14.4542 3 15.0125 3C15.5708 3 16.0417 3.19167 16.425 3.575L21.4 8.55C21.7833 8.93333 21.975 9.40832 21.975 9.975C21.975 10.5417 21.7833 11.0167 21.4 11.4L13 20H4.75ZM12.15 18L14.4999 15.5L9.49988 10.5L4 16.4L5.6 18H12.15Z" fill="#1D1B20"/>
</svg>
